Coordinates
version=1
nRows=14
nColumns=24
inDegrees=yes

Units are S.I. units (second, meters, Newtons, ...)
Angles are in degrees.

endheader
time	pelvis_tilt	pelvis_list	pelvis_rotation	pelvis_tx	pelvis_ty	pelvis_tz	hip_flexion_r	hip_adduction_r	hip_rotation_r	knee_angle_r	ankle_angle_r	subtalar_angle_r	mtp_angle_r	hip_flexion_l	hip_adduction_l	hip_rotation_l	knee_angle_l	ankle_angle_l	subtalar_angle_l	mtp_angle_l	lumbar_extension	lumbar_bending	lumbar_rotation
      1.00450000	     -8.36904421	     -1.83503703	     -5.58271111	      0.05158009	      1.01453926	      0.29550666	     -9.06363452	      2.80446921	      1.39385142	    -13.56875523	     20.50522823	      5.28467201	      6.43539747	     36.69152114	     -5.41665864	     -2.65333354	     -6.40840225	     10.30991706	      7.07389159	      3.64258434	     -6.77996904	      4.13370623	      6.61528867
      1.00866667	     -8.38544055	     -1.74157295	     -5.72327769	      0.05809666	      1.01381668	      0.29522163	     -9.14633475	      2.59849466	      1.39649004	    -14.10614124	     20.34966035	      5.48907051	      6.64751353	     36.71221897	     -5.32656886	     -2.51522519	     -7.01962568	      9.94684853	      6.80392080	      3.69037781	     -6.70380235	      3.92772602	      6.66025469
      1.01283333	     -8.39107253	     -1.66421358	     -5.83770548	      0.06460899	      1.01314554	      0.29487559	     -9.23597156	      2.41322129	      1.40011227	    -14.64449357	     20.07797206	      5.56173741	      9.65698328	     36.73008775	     -5.23221871	     -2.31808299	     -7.65667315	      9.52703646	      6.44144865	      4.45102845	     -6.64462458	      3.76468443	      6.65476073
      1.01700000	     -8.39891367	     -1.54518346	     -5.96982145	      0.07116579	      1.01253282	      0.29456773	     -9.29015890	      2.17690034	      1.37721906	    -15.24716765	     19.87591192	      5.77355026	      9.72388257	     36.76298573	     -5.11941339	     -2.27602228	     -8.35036341	      9.12530402	      6.25194970	      4.45438635	     -6.57148198	      3.51967711	      6.70378361
      1.02116667	     -8.42452917	     -1.42926072	     -6.09087571	      0.07772791	      1.01194204	      0.29422919	     -9.30721589	      1.94744816	      1.35548662	    -15.88095837	     19.61942151	      5.94711194	      9.85590499	     36.81368128	     -5.00236338	     -2.18700481	     -9.04818051	      8.66148606	      5.97390279	      4.46687638	     -6.47278749	      3.28873931	      6.72524478
      1.02533333	     -8.45717618	     -1.30459369	     -6.20147678	      0.08429803	      1.01139468	      0.29386520	     -9.29557523	      1.71004636	      1.32445185	    -16.55049903	     19.32333938	      6.10877247	     10.06815495	     36.87885959	     -4.87323087	     -2.09952372	     -9.76772189	      8.16748216	      5.66842275	      4.48660679	     -6.36612368	      3.04630736	      6.72944047
      1.02950000	     -8.45908944	     -1.17661556	     -6.30629444	      0.09087982	      1.01096791	      0.29351897	     -9.31156844	      1.47289647	      1.33429359	    -17.21817119	     18.91902530	      6.19739605	     10.19943455	     36.92276423	     -4.74587001	     -2.08222289	    -10.51704691	      7.67509374	      5.49190244	      4.49254423	     -6.29831397	      2.78454245	      6.70361324
      1.03366667	     -8.48922874	     -1.05610203	     -6.38571797	      0.09742432	      1.01053147	      0.29307162	     -9.25758955	      1.24220825	      1.27679537	    -17.95489687	     18.47640454	      6.25699769	     13.55991021	     37.00414328	     -4.60098607	     -1.94037615	    -11.27896723	      7.13816880	      5.06222102	      4.79394351	     -6.19768907	      2.56642613	      6.66715171
      1.03783333	     -8.49627134	     -0.90663235	     -6.47524085	      0.10401780	      1.01020336	      0.29268018	     -9.20943910	      0.97915098	      1.24172302	    -18.72400298	     18.03692059	      6.38233117	     13.59986414	     37.08085348	     -4.45516441	     -1.98957728	    -12.10025975	      6.69493985	      4.92718437	      4.78534692	     -6.11640532	      2.27381183	      6.65342185
      1.04200000	     -8.52858476	     -0.76001148	     -6.54557251	      0.11056412	      1.00986294	      0.29220176	     -9.08523378	      0.71560595	      1.13823532	    -19.58801624	     17.63869870	      6.57079945	     13.75796714	     37.19606577	     -4.29517291	     -1.96186968	    -12.94160304	      6.24715323	      4.64109486	      4.77156908	     -6.00680380	      2.01408164	      6.64567836
      1.04616667	     -8.53266626	     -0.60894309	     -6.60661260	      0.11714072	      1.00966361	      0.29175155	     -8.99266687	      0.45588722	      1.10211118	    -20.42977186	     17.08041969	      6.63523878	     13.86775384	     37.28009021	     -4.13413693	     -1.97773480	    -13.78696793	      5.82180927	      4.46255555	      4.75721128	     -5.93354751	      1.71818736	      6.59461162
      1.05033333	     -8.55313731	     -0.45072691	     -6.65765802	      0.12370450	      1.00947851	      0.29125520	     -8.83933420	      0.18644855	      1.03130001	    -21.35203611	     16.53231679	      6.73870509	     14.02670770	     37.38826845	     -3.96109244	     -1.98365561	    -14.64923674	      5.43311669	      4.24419501	      4.73820162	     -5.83371643	      1.42849997	      6.54560909
      1.05450000	     -8.55490206	     -0.29669473	     -6.69301026	      0.13021913	      1.00937672	      0.29069228	     -8.66946093	     -0.08520392	      0.92811569	    -22.32555549	     15.91091781	      6.78695552	     18.01904756	     37.47121374	     -3.77154126	     -1.91164319	    -15.49790129	      5.06438835	      3.91947308	      4.37800513	     -5.76893200	      1.17867980	      6.48065125
      1.05866667	     -8.55396239	     -0.13194343	     -6.71527862	      0.13675172	      1.00931724	      0.29013044	     -8.47579850	     -0.36629510	      0.81415340	    -23.35145658	     15.30859280	      6.90272585	     18.08020281	     37.57258951	     -3.58091591	     -1.94921444	    -16.39726840	      4.78220102	      3.78239342	      4.36093516	     -5.70392989	      0.86819775	      6.42543199
